<svg xmlns="http://www.w3.org/2000/svg" viewBox="0 0 900 460" width="900" height="460" role="img" aria-label="Unmet medical care in Greece and the EU" font-family="Helvetica,Arial,sans-serif">
<rect width="900" height="460" fill="#ffffff"/>
<text x="62.0" y="26.0" font-size="16" fill="#1f2933" text-anchor="start" font-weight="bold">Unmet medical care remains exceptionally high in Greece</text>
<text x="62.0" y="44.0" font-size="12" fill="#6b7280" text-anchor="start" font-weight="normal">Share reporting unmet need because of cost, waiting lists or distance</text>
<line x1="62.0" y1="414.0" x2="750.0" y2="414.0" stroke="#e5e7eb" stroke-width="1"/>
<text x="54.0" y="418.0" font-size="10" fill="#6b7280" text-anchor="end" font-weight="normal">0</text>
<line x1="62.0" y1="330.8" x2="750.0" y2="330.8" stroke="#e5e7eb" stroke-width="1"/>
<text x="54.0" y="334.8" font-size="10" fill="#6b7280" text-anchor="end" font-weight="normal">4</text>
<line x1="62.0" y1="247.7" x2="750.0" y2="247.7" stroke="#e5e7eb" stroke-width="1"/>
<text x="54.0" y="251.7" font-size="10" fill="#6b7280" text-anchor="end" font-weight="normal">8</text>
<line x1="62.0" y1="164.5" x2="750.0" y2="164.5" stroke="#e5e7eb" stroke-width="1"/>
<text x="54.0" y="168.5" font-size="10" fill="#6b7280" text-anchor="end" font-weight="normal">12</text>
<line x1="62.0" y1="81.4" x2="750.0" y2="81.4" stroke="#e5e7eb" stroke-width="1"/>
<text x="54.0" y="85.4" font-size="10" fill="#6b7280" text-anchor="end" font-weight="normal">16</text>
<text x="62.0" y="432.0" font-size="10" fill="#6b7280" text-anchor="middle" font-weight="normal">2008</text>
<text x="148.0" y="432.0" font-size="10" fill="#6b7280" text-anchor="middle" font-weight="normal">2010</text>
<text x="234.0" y="432.0" font-size="10" fill="#6b7280" text-anchor="middle" font-weight="normal">2012</text>
<text x="320.0" y="432.0" font-size="10" fill="#6b7280" text-anchor="middle" font-weight="normal">2014</text>
<text x="406.0" y="432.0" font-size="10" fill="#6b7280" text-anchor="middle" font-weight="normal">2016</text>
<text x="492.0" y="432.0" font-size="10" fill="#6b7280" text-anchor="middle" font-weight="normal">2018</text>
<text x="578.0" y="432.0" font-size="10" fill="#6b7280" text-anchor="middle" font-weight="normal">2020</text>
<text x="664.0" y="432.0" font-size="10" fill="#6b7280" text-anchor="middle" font-weight="normal">2022</text>
<text x="750.0" y="432.0" font-size="10" fill="#6b7280" text-anchor="middle" font-weight="normal">2024</text>
<path d="M62.0 399.4 L105.0 403.6 L148.0 401.5 L191.0 405.7 L234.0 407.8 L277.0 405.7 L320.0 411.9 L363.0 411.9 L406.0 409.8 L449.0 409.8 L492.0 411.9 L535.0 407.8 L578.0 411.9 L621.0 407.8 L664.0 403.6 L707.0 401.5 L750.0 393.2" fill="none" stroke="#c9ced6" stroke-width="1" stroke-linejoin="round"/>
<path d="M62.0 403.6 L105.0 401.5 L148.0 405.7 L191.0 382.8 L234.0 378.7 L277.0 374.5 L320.0 362.0 L363.0 364.1 L406.0 362.0 L449.0 368.3 L492.0 376.6 L535.0 376.6 L578.0 382.8 L621.0 378.7 L664.0 393.2 L707.0 391.1 L750.0 384.9" fill="none" stroke="#c9ced6" stroke-width="1" stroke-linejoin="round"/>
<path d="M62.0 95.9 L105.0 199.9 L148.0 195.7 L191.0 210.3 L234.0 241.4 L277.0 229.0 L320.0 297.6 L363.0 316.3 L406.0 355.8 L449.0 370.3 L492.0 374.5 L535.0 384.9 L578.0 384.9 L621.0 393.2 L664.0 393.2 L707.0 391.1 L750.0 391.1" fill="none" stroke="#c9ced6" stroke-width="1" stroke-linejoin="round"/>
<path d="M62.0 355.8 L105.0 343.3 L148.0 328.8 L191.0 322.5 L234.0 341.2 L277.0 322.5 L320.0 316.3 L363.0 382.8 L406.0 401.5 L449.0 382.8 L492.0 384.9 L535.0 393.2 L578.0 405.7 L621.0 409.8 L664.0 409.8 L707.0 411.9 L750.0 411.9" fill="none" stroke="#c9ced6" stroke-width="1" stroke-linejoin="round"/>
<path d="M62.0 399.4 L105.0 401.5 L148.0 393.2 L191.0 391.1 L234.0 393.2 L277.0 393.2 L320.0 391.1 L363.0 397.4 L406.0 399.4 L449.0 403.6 L492.0 407.8 L535.0 403.6 L578.0 405.7 L621.0 407.8 L664.0 409.8 L707.0 405.7 L750.0 403.6" fill="none" stroke="#c9ced6" stroke-width="1" stroke-linejoin="round"/>
<path d="M62.0 368.3 L105.0 370.3 L148.0 376.6 L191.0 378.7 L234.0 380.7 L277.0 380.7 L320.0 380.7 L363.0 403.6 L406.0 407.8 L449.0 407.8 L492.0 409.8 L535.0 407.8 L578.0 411.9 L621.0 411.9 L664.0 407.8 L707.0 409.8 L750.0 397.4" fill="none" stroke="#c9ced6" stroke-width="1" stroke-linejoin="round"/>
<path d="M62.0 401.5 L105.0 382.8 L148.0 391.1 L191.0 395.3 L234.0 387.0 L277.0 387.0 L320.0 384.9 L363.0 387.0 L406.0 387.0 L449.0 393.2 L492.0 387.0 L535.0 376.6 L578.0 378.7 L621.0 387.0 L664.0 370.3 L707.0 357.9 L750.0 349.6" fill="none" stroke="#c9ced6" stroke-width="1" stroke-linejoin="round"/>
<path d="M62.0 262.2 L105.0 324.6 L148.0 314.2 L191.0 262.2 L234.0 241.4 L277.0 239.4 L320.0 179.1 L363.0 150.0 L406.0 95.9 L449.0 168.7 L492.0 73.0 L535.0 91.8 L578.0 143.7 L621.0 245.6 L664.0 224.8 L707.0 145.8 L750.0 237.3" fill="none" stroke="#c9ced6" stroke-width="1" stroke-linejoin="round"/>
<path d="M62.0 405.7 L105.0 403.6 L148.0 407.8 L191.0 401.5 L234.0 399.4 L277.0 397.4 L320.0 401.5 L363.0 401.5 L406.0 403.6 L449.0 411.9 L492.0 409.8 L535.0 409.8 L578.0 405.7 L621.0 391.1 L664.0 389.1 L707.0 376.6 L750.0 376.6" fill="none" stroke="#c9ced6" stroke-width="1" stroke-linejoin="round"/>
<path d="M62.0 397.4 L105.0 337.1 L148.0 332.9 L191.0 322.5 L234.0 318.4 L277.0 324.6 L320.0 345.4 L363.0 324.6 L406.0 328.8 L449.0 339.2 L492.0 316.3 L535.0 318.4 L578.0 301.7 L621.0 322.5 L664.0 278.9 L707.0 249.8 L750.0 237.3" fill="none" stroke="#c9ced6" stroke-width="1" stroke-linejoin="round"/>
<path d="M62.0 374.5 L105.0 374.5 L148.0 374.5 L191.0 366.2 L234.0 368.3 L277.0 359.9 L320.0 355.8 L363.0 389.1 L406.0 387.0 L449.0 393.2 L492.0 389.1 L535.0 389.1 L578.0 357.9 L621.0 355.8 L664.0 347.5 L707.0 337.1 L750.0 328.8" fill="none" stroke="#c9ced6" stroke-width="1" stroke-linejoin="round"/>
<path d="M148.0 283.0 L191.0 308.0 L234.0 341.2 L277.0 345.4 L320.0 345.4 L363.0 374.5 L406.0 378.7 L449.0 380.7 L492.0 384.9 L535.0 384.9 L578.0 382.8 L621.0 378.7 L664.0 387.0 L707.0 393.2 L750.0 387.0" fill="none" stroke="#c9ced6" stroke-width="1" stroke-linejoin="round"/>
<path d="M62.0 343.3 L105.0 370.3 L148.0 378.7 L191.0 357.9 L234.0 353.7 L277.0 359.9 L320.0 362.0 L363.0 359.9 L406.0 387.0 L449.0 393.2 L492.0 397.4 L535.0 393.2 L578.0 399.4 L621.0 391.1 L664.0 384.9 L707.0 393.2 L750.0 393.2" fill="none" stroke="#c9ced6" stroke-width="1" stroke-linejoin="round"/>
<path d="M62.0 376.6 L105.0 372.4 L148.0 370.3 L191.0 368.3 L234.0 343.3 L277.0 345.4 L320.0 337.1 L363.0 357.9 L406.0 362.0 L449.0 355.8 L492.0 372.4 L535.0 372.4 L578.0 376.6 L621.0 370.3 L664.0 357.9 L707.0 357.9 L750.0 353.7" fill="none" stroke="#c9ced6" stroke-width="1" stroke-linejoin="round"/>
<path d="M62.0 305.9 L105.0 301.7 L148.0 305.9 L191.0 291.3 L234.0 295.5 L277.0 268.5 L320.0 268.5 L363.0 264.3 L406.0 299.7 L449.0 376.6 L492.0 364.1 L535.0 376.6 L621.0 376.6 L664.0 376.6 L707.0 376.6 L750.0 374.5" fill="none" stroke="#c9ced6" stroke-width="1" stroke-linejoin="round"/>
<path d="M62.0 295.5 L105.0 349.6 L148.0 359.9 L191.0 355.8 L234.0 366.2 L277.0 347.5 L320.0 337.1 L363.0 353.7 L406.0 349.6 L449.0 382.8 L492.0 368.3 L535.0 384.9 L578.0 378.7 L621.0 364.1 L664.0 353.7 L707.0 335.0 L750.0 324.6" fill="none" stroke="#c9ced6" stroke-width="1" stroke-linejoin="round"/>
<path d="M62.0 401.5 L105.0 401.5 L148.0 401.5 L191.0 401.5 L234.0 399.4 L277.0 395.3 L320.0 397.4 L363.0 395.3 L406.0 405.7 L449.0 407.8 L492.0 407.8 L535.0 409.8 L578.0 411.9 L621.0 393.2 L664.0 403.6 L707.0 397.4 L750.0 393.2" fill="none" stroke="#c9ced6" stroke-width="1" stroke-linejoin="round"/>
<path d="M62.0 208.2 L105.0 208.2 L148.0 100.1 L191.0 79.3 L234.0 156.2 L277.0 127.1 L320.0 154.1 L363.0 239.4 L406.0 243.5 L449.0 285.1 L492.0 285.1 L535.0 324.6 L578.0 303.8 L621.0 330.8 L664.0 301.7 L707.0 251.8 L750.0 239.4" fill="none" stroke="#c9ced6" stroke-width="1" stroke-linejoin="round"/>
<path d="M62.0 399.4 L105.0 384.9 L148.0 380.7 L191.0 391.1 L234.0 389.1 L277.0 395.3 L320.0 391.1 L363.0 397.4 L406.0 393.2 L449.0 409.8 L492.0 409.8 L535.0 414.0 L578.0 414.0 L621.0 411.9 L664.0 407.8 L707.0 411.9 L750.0 407.8" fill="none" stroke="#c9ced6" stroke-width="1" stroke-linejoin="round"/>
<path d="M62.0 407.8 L105.0 407.8 L148.0 405.7 L191.0 405.7 L234.0 403.6 L277.0 405.7 L320.0 403.6 L363.0 411.9 L406.0 409.8 L449.0 411.9 L492.0 409.8 L535.0 409.8 L578.0 409.8 L621.0 409.8 L664.0 409.8 L707.0 407.8 L750.0 401.5" fill="none" stroke="#c9ced6" stroke-width="1" stroke-linejoin="round"/>
<path d="M62.0 289.3 L105.0 256.0 L148.0 241.4 L191.0 249.8 L234.0 226.9 L277.0 231.0 L320.0 251.8 L363.0 262.2 L406.0 276.8 L449.0 345.4 L492.0 326.7 L535.0 326.7 L578.0 374.5 L621.0 357.9 L664.0 366.2 L707.0 339.2 L750.0 335.0" fill="none" stroke="#c9ced6" stroke-width="1" stroke-linejoin="round"/>
<path d="M62.0 391.1 L105.0 345.4 L148.0 372.4 L191.0 384.9 L234.0 345.4 L277.0 351.6 L320.0 341.2 L363.0 351.6 L406.0 364.1 L449.0 366.2 L492.0 370.3 L535.0 378.7 L578.0 380.7 L621.0 366.2 L664.0 353.7 L707.0 355.8 L750.0 362.0" fill="none" stroke="#c9ced6" stroke-width="1" stroke-linejoin="round"/>
<path d="M62.0 183.2 L105.0 229.0 L148.0 183.2 L191.0 160.4 L234.0 174.9 L277.0 187.4 L320.0 210.3 L363.0 218.6 L406.0 278.9 L449.0 316.3 L492.0 312.1 L535.0 312.1 L578.0 316.3 L621.0 322.5 L664.0 312.1 L707.0 305.9 L750.0 368.3" fill="none" stroke="#c9ced6" stroke-width="1" stroke-linejoin="round"/>
<path d="M62.0 359.9 L105.0 370.3 L148.0 374.5 L191.0 382.8 L234.0 382.8 L277.0 370.3 L320.0 378.7 L363.0 387.0 L406.0 380.7 L449.0 384.9 L492.0 382.8 L535.0 384.9 L578.0 382.8 L621.0 387.0 L664.0 376.6 L707.0 370.3 L750.0 368.3" fill="none" stroke="#c9ced6" stroke-width="1" stroke-linejoin="round"/>
<path d="M62.0 409.8 L105.0 409.8 L148.0 411.9 L191.0 411.9 L234.0 411.9 L277.0 414.0 L320.0 409.8 L363.0 409.8 L406.0 405.7 L449.0 341.2 L492.0 345.4 L535.0 353.7 L578.0 357.9 L621.0 314.2 L664.0 337.1 L707.0 335.0 L750.0 343.3" fill="none" stroke="#c9ced6" stroke-width="1" stroke-linejoin="round"/>
<path d="M62.0 387.0 L105.0 378.7 L148.0 378.7 L191.0 368.3 L234.0 368.3 L277.0 374.5 L320.0 370.3 L363.0 370.3 L406.0 366.2 L449.0 364.1 L492.0 359.9 L535.0 357.9 L578.0 347.5 L621.0 353.7 L664.0 355.8 L707.0 347.5 L750.0 380.7" fill="none" stroke="#c9ced6" stroke-width="1" stroke-linejoin="round"/>
<path d="M62.0 375.5 L105.0 370.3 L148.0 374.5 L191.0 368.3 L234.0 366.2 L277.0 359.9 L320.0 355.8 L363.0 370.3 L406.0 378.7 L449.0 380.7 L492.0 376.6 L535.0 384.9 L578.0 381.8 L621.0 378.7 L664.0 376.6 L707.0 370.3 L750.0 374.5" fill="none" stroke="#b7791f" stroke-width="2.4" stroke-linejoin="round"/>
<path d="M62.0 301.7 L105.0 299.7 L148.0 299.7 L191.0 258.1 L234.0 247.7 L277.0 226.9 L320.0 187.4 L363.0 158.3 L406.0 141.7 L449.0 206.1 L492.0 231.0 L535.0 245.6 L578.0 278.9 L621.0 280.9 L664.0 226.9 L707.0 172.8 L750.0 162.4" fill="none" stroke="#3d6fb4" stroke-width="3.2" stroke-linejoin="round"/>
<text x="758.0" y="158.4" font-size="12" fill="#3d6fb4" text-anchor="start" font-weight="bold">Greece 12.1%</text>
<text x="758.0" y="174.4" font-size="12" fill="#3d6fb4" text-anchor="start" font-weight="bold">worst of 27</text>
<text x="758.0" y="378.5" font-size="12" fill="#b7791f" text-anchor="start" font-weight="bold">EU median 1.9%</text>
<text transform="rotate(-90 14 235.0)" x="14.0" y="235.0" font-size="11" fill="#6b7280" text-anchor="middle" font-weight="normal">Percent of people aged 16+</text>
<text x="62.0" y="450.0" font-size="10" fill="#6b7280" text-anchor="start" font-weight="normal">Other EU countries in grey. Descriptive context, not a model result. Source: Eurostat sdg_03_60.</text>
</svg>
