<svg xmlns="http://www.w3.org/2000/svg" viewBox="0 0 560 300" width="560" height="300" role="img" aria-label="Power curve with MDE marked" font-family="Helvetica,Arial,sans-serif">
<rect width="560" height="300" fill="#ffffff"/>
<text x="20.0" y="26.0" font-size="13" fill="#1f2933" text-anchor="start" font-weight="bold">Most Family E tests will be underpowered</text>
<text x="20.0" y="44.0" font-size="10.5" fill="#6b7280" text-anchor="start" font-weight="normal">Power to detect an effect, by effect size</text>
<line x1="70.0" y1="240.0" x2="520.0" y2="240.0" stroke="#e5e7eb" stroke-width="1"/>
<text x="62.0" y="244.0" font-size="9.5" fill="#6b7280" text-anchor="end" font-weight="normal">0%</text>
<line x1="70.0" y1="204.0" x2="520.0" y2="204.0" stroke="#e5e7eb" stroke-width="1"/>
<text x="62.0" y="208.0" font-size="9.5" fill="#6b7280" text-anchor="end" font-weight="normal">20%</text>
<line x1="70.0" y1="168.0" x2="520.0" y2="168.0" stroke="#e5e7eb" stroke-width="1"/>
<text x="62.0" y="172.0" font-size="9.5" fill="#6b7280" text-anchor="end" font-weight="normal">40%</text>
<line x1="70.0" y1="132.0" x2="520.0" y2="132.0" stroke="#e5e7eb" stroke-width="1"/>
<text x="62.0" y="136.0" font-size="9.5" fill="#6b7280" text-anchor="end" font-weight="normal">60%</text>
<line x1="70.0" y1="96.0" x2="520.0" y2="96.0" stroke="#e5e7eb" stroke-width="1"/>
<text x="62.0" y="100.0" font-size="9.5" fill="#6b7280" text-anchor="end" font-weight="normal">80%</text>
<line x1="70.0" y1="60.0" x2="520.0" y2="60.0" stroke="#e5e7eb" stroke-width="1"/>
<text x="62.0" y="64.0" font-size="9.5" fill="#6b7280" text-anchor="end" font-weight="normal">100%</text>
<line x1="70.0" y1="96.0" x2="520.0" y2="96.0" stroke="#b7791f" stroke-width="1.5" stroke-dasharray="4,3"/>
<text x="520.0" y="89.0" font-size="9.5" fill="#b7791f" text-anchor="end" font-weight="bold">80% power</text>
<polyline points="92.5,218.9 137.5,198.1 182.5,169.8 227.5,143.7 272.5,119.0 317.5,96.5 362.5,78.9 407.5,65.4 452.5,62.2 497.5,60.9" fill="none" stroke="#3d6fb4" stroke-width="2.5"/>
<circle cx="92.5" cy="218.9" r="3" fill="#3d6fb4"/>
<text x="92.5" y="258.0" font-size="9" fill="#6b7280" text-anchor="middle" font-weight="normal">0.1</text>
<circle cx="137.5" cy="198.1" r="3" fill="#3d6fb4"/>
<text x="137.5" y="258.0" font-size="9" fill="#6b7280" text-anchor="middle" font-weight="normal">0.2</text>
<circle cx="182.5" cy="169.8" r="3" fill="#3d6fb4"/>
<text x="182.5" y="258.0" font-size="9" fill="#6b7280" text-anchor="middle" font-weight="normal">0.3</text>
<circle cx="227.5" cy="143.7" r="3" fill="#3d6fb4"/>
<text x="227.5" y="258.0" font-size="9" fill="#6b7280" text-anchor="middle" font-weight="normal">0.4</text>
<circle cx="272.5" cy="119.0" r="3" fill="#3d6fb4"/>
<text x="272.5" y="258.0" font-size="9" fill="#6b7280" text-anchor="middle" font-weight="normal">0.5</text>
<circle cx="317.5" cy="96.5" r="3" fill="#3d6fb4"/>
<text x="317.5" y="258.0" font-size="9" fill="#6b7280" text-anchor="middle" font-weight="normal">0.6</text>
<circle cx="362.5" cy="78.9" r="4.5" fill="#c0392b"/>
<line x1="362.5" y1="78.9" x2="362.5" y2="240.0" stroke="#c0392b" stroke-width="1.2" stroke-dasharray="3,3"/>
<text x="370.5" y="68.9" font-size="10" fill="#c0392b" text-anchor="start" font-weight="bold">MDE 0.70 SD = 9.29 points</text>
<text x="362.5" y="258.0" font-size="9" fill="#6b7280" text-anchor="middle" font-weight="normal">0.7</text>
<circle cx="407.5" cy="65.4" r="3" fill="#3d6fb4"/>
<text x="407.5" y="258.0" font-size="9" fill="#6b7280" text-anchor="middle" font-weight="normal">0.8</text>
<circle cx="452.5" cy="62.2" r="3" fill="#3d6fb4"/>
<text x="452.5" y="258.0" font-size="9" fill="#6b7280" text-anchor="middle" font-weight="normal">0.9</text>
<circle cx="497.5" cy="60.9" r="3" fill="#3d6fb4"/>
<text x="497.5" y="258.0" font-size="9" fill="#6b7280" text-anchor="middle" font-weight="normal">1.0</text>
<text x="295.0" y="278.0" font-size="10" fill="#6b7280" text-anchor="middle" font-weight="normal">effect size (residual SD per SD of regressor)</text>
<text x="20.0" y="288.0" font-size="10" fill="#6b7280" text-anchor="start" font-weight="normal">Residual SD 13.27 points. Between-country SD 12.87, within-country 4.01.</text>
</svg>
